<svg xmlns="http://www.w3.org/2000/svg" width="20" height="20" fill="none" viewBox="0 0 20 20">
    <path fill="#4285F4" d="M18.948 10.392c0-.62-.05-1.244-.158-1.855h-8.61v3.515h4.93c-.204 1.134-.861 2.136-1.824 2.774v2.28h2.941c1.728-1.59 2.72-3.937 2.72-6.714z"/>
    <path fill="#34A853" d="M10.18 19.308c2.462 0 4.538-.808 6.05-2.203l-2.94-2.28c-.819.556-1.875.871-3.106.871-2.382 0-4.4-1.606-5.125-3.766H2.024v2.35c1.55 3.083 4.705 5.028 8.156 5.028z"/>
    <path fill="#FBBC04" d="M5.056 11.93c-.383-1.134-.383-2.361 0-3.495V6.084H2.024c-1.295 2.58-1.295 5.618 0 8.197l3.032-2.351z"/>
    <path fill="#EA4335" d="M10.18 4.665c1.302-.02 2.56.47 3.502 1.369l2.606-2.606c-1.65-1.55-3.84-2.401-6.108-2.375-3.45 0-6.607 1.946-8.156 5.031l3.032 2.351c.72-2.163 2.743-3.77 5.124-3.77z"/>
</svg>
