<svg xmlns="http://www.w3.org/2000/svg" width="20" height="20" fill="none" viewBox="0 0 20 20">
    <path fill="#000" d="M15.437 10.928c-.025-2.419 1.98-3.594 2.072-3.653C16.377 5.617 14.617 5.397 14 5.38c-1.48-.152-2.909.88-3.662.88-.77 0-1.928-.871-3.171-.846-1.607.025-3.113.956-3.933 2.402-1.7 2.943-.432 7.274 1.2 9.65.813 1.167 1.768 2.47 3.012 2.42 1.218-.052 1.674-.779 3.146-.779 1.455 0 1.886.778 3.155.753 1.31-.026 2.131-1.167 2.918-2.351.938-1.337 1.32-2.656 1.336-2.724-.025 0-2.537-.956-2.563-3.857zM13.036 3.815c.66-.82 1.107-1.937.98-3.07-.947.042-2.14.66-2.824 1.463-.61.71-1.142 1.87-1.007 2.96 1.066.068 2.165-.54 2.85-1.353z"/>
</svg>
