<svg width="193" height="31" viewBox="0 0 193 31" fill="none" xmlns="http://www.w3.org/2000/svg">
<path d="M32.7455 12.6301L25.2326 19.8435L27.0063 30.0311C27.0603 30.3412 26.9307 30.6559 26.6719 30.8409C26.5258 30.9463 26.3519 31 26.1776 31C26.0438 31 25.909 30.9676 25.7861 30.9047L16.4995 26.0952L7.21297 30.9047C6.93004 31.0507 6.58642 31.0264 6.32768 30.8409C6.06893 30.6559 5.9393 30.3417 5.99331 30.0311L7.76698 19.8435L0.254085 12.6301C0.0246604 12.4091 -0.0576453 12.0808 0.0411206 11.7808C0.139887 11.4803 0.402749 11.2624 0.720137 11.2162L11.1029 9.72997L15.7459 0.462656C15.8874 0.179894 16.1796 0 16.4995 0C16.8195 0 17.1122 0.179894 17.2537 0.462656L21.8972 9.73048L32.28 11.2168C32.5963 11.2624 32.8597 11.4808 32.959 11.7813C33.0577 12.0813 32.9749 12.4086 32.7455 12.6301Z" fill="black"/>
<path d="M72.7455 12.6301L65.2326 19.8435L67.0063 30.0311C67.0603 30.3412 66.9307 30.6559 66.6719 30.8409C66.5258 30.9463 66.3519 31 66.1776 31C66.0438 31 65.909 30.9676 65.7861 30.9047L56.4995 26.0952L47.213 30.9047C46.93 31.0507 46.5864 31.0264 46.3277 30.8409C46.0689 30.6559 45.9393 30.3417 45.9933 30.0311L47.767 19.8435L40.2541 12.6301C40.0247 12.4091 39.9424 12.0808 40.0411 11.7808C40.1399 11.4803 40.4027 11.2624 40.7201 11.2162L51.1029 9.72997L55.7459 0.462656C55.8874 0.179894 56.1796 0 56.4995 0C56.8195 0 57.1122 0.179894 57.2537 0.462656L61.8972 9.73048L72.28 11.2168C72.5963 11.2624 72.8597 11.4808 72.959 11.7813C73.0577 12.0813 72.9749 12.4086 72.7455 12.6301Z" fill="black"/>
<path d="M112.745 12.6301L105.233 19.8435L107.006 30.0311C107.06 30.3412 106.931 30.6559 106.672 30.8409C106.526 30.9463 106.352 31 106.178 31C106.044 31 105.909 30.9676 105.786 30.9047L96.4995 26.0952L87.213 30.9047C86.93 31.0507 86.5864 31.0264 86.3277 30.8409C86.0689 30.6559 85.9393 30.3417 85.9933 30.0311L87.767 19.8435L80.2541 12.6301C80.0247 12.4091 79.9424 12.0808 80.0411 11.7808C80.1399 11.4803 80.4027 11.2624 80.7201 11.2162L91.1029 9.72997L95.7459 0.462656C95.8874 0.179894 96.1796 0 96.4995 0C96.8195 0 97.1122 0.179894 97.2537 0.462656L101.897 9.73048L112.28 11.2168C112.596 11.2624 112.86 11.4808 112.959 11.7813C113.058 12.0813 112.975 12.4086 112.745 12.6301Z" fill="black"/>
<path d="M152.745 12.6301L145.233 19.8435L147.006 30.0311C147.06 30.3412 146.931 30.6559 146.672 30.8409C146.526 30.9463 146.352 31 146.178 31C146.044 31 145.909 30.9676 145.786 30.9047L136.5 26.0952L127.213 30.9047C126.93 31.0507 126.586 31.0264 126.328 30.8409C126.069 30.6559 125.939 30.3417 125.993 30.0311L127.767 19.8435L120.254 12.6301C120.025 12.4091 119.942 12.0808 120.041 11.7808C120.14 11.4803 120.403 11.2624 120.72 11.2162L131.103 9.72997L135.746 0.462656C135.887 0.179894 136.18 0 136.5 0C136.819 0 137.112 0.179894 137.254 0.462656L141.897 9.73048L152.28 11.2168C152.596 11.2624 152.86 11.4808 152.959 11.7813C153.058 12.0813 152.975 12.4086 152.745 12.6301Z" fill="black"/>
<path d="M192.745 12.6301L185.233 19.8435L187.006 30.0311C187.06 30.3412 186.931 30.6559 186.672 30.8409C186.526 30.9463 186.352 31 186.178 31C186.044 31 185.909 30.9676 185.786 30.9047L176.5 26.0952L167.213 30.9047C166.93 31.0507 166.586 31.0264 166.328 30.8409C166.069 30.6559 165.939 30.3417 165.993 30.0311L167.767 19.8435L160.254 12.6301C160.025 12.4091 159.942 12.0808 160.041 11.7808C160.14 11.4803 160.403 11.2624 160.72 11.2162L171.103 9.72997L175.746 0.462656C175.887 0.179894 176.18 0 176.5 0C176.819 0 177.112 0.179894 177.254 0.462656L181.897 9.73048L192.28 11.2168C192.596 11.2624 192.86 11.4808 192.959 11.7813C193.058 12.0813 192.975 12.4086 192.745 12.6301Z" fill="black"/>
</svg>
