<svg width="18" height="16" fill="none" xmlns="http://www.w3.org/2000/svg">
    <path d="M12.463.95A4.583 4.583 0 0 0 9 2.494l-.033.038A4.471 4.471 0 0 0 5.537 1V.95C3.003.95.95 2.965.95 5.453c0 1.067.482 2.186 1.203 3.262.722 1.077 1.686 2.117 2.659 3.028a32.476 32.476 0 0 0 3.652 2.938c.233.16.386.258.43.282a.42.42 0 0 0 .457 0c.044-.024.194-.122.42-.28a30.944 30.944 0 0 0 3.54-2.918c.942-.908 1.876-1.946 2.575-3.026.698-1.079 1.164-2.204 1.164-3.286 0-2.488-2.054-4.503-4.587-4.503zm0 0V1 .95zm-6.926.895a3.614 3.614 0 0 1 3.077 1.627l.001.003a.48.48 0 0 0 .664.104.471.471 0 0 0 .106-.104v-.002c1.112-1.668 3.39-2.136 5.09-1.045a3.59 3.59 0 0 1 1.665 3.024c0 .852-.363 1.776-.932 2.696-.568.92-1.338 1.831-2.147 2.657-1.595 1.628-3.332 2.915-3.938 3.262-.608-.357-2.406-1.654-4.062-3.286-.84-.826-1.64-1.737-2.231-2.653-.592-.917-.97-1.835-.97-2.675 0-1.992 1.645-3.608 3.677-3.608z" fill="#000" stroke="#000" stroke-width=".1"/>
</svg>
