<svg width="77" height="31" viewBox="0 0 77 31" fill="none" xmlns="http://www.w3.org/2000/svg">
<g clip-path="url(#clip0_17_178)">
<path d="M61.1948 3.59419C63.5819 1.55596 64.1753 0 64.1753 0H2.11327e-05C2.11327e-05 0 -0.0374136 0.758488 3.03884 3.53516C6.1151 6.31294 9.71324 6.60921 11.0631 6.60921H46.1163C41.4887 13.4323 34.7846 23.3216 34.6173 23.5755C34.3607 23.9653 33.1078 25.401 33.8642 27.2365C34.6206 29.072 37.5592 30.9989 37.5592 30.9989L54.0922 6.60921C54.4687 6.60921 58.8089 5.63242 61.1948 3.5953V3.59419Z" fill="#E2012D"/>
<path d="M69.0187 0.00334136C69.0187 0.00334136 69.0176 0.00556893 69.0154 0.00891029L69.0187 0C69.0187 0 67.2362 2.70761 64.6939 4.30478C62.1528 5.90084 59.1503 6.70499 59.1503 6.70499L64.4726 6.70833C59.823 13.567 53.2554 23.2592 53.0891 23.5109C52.8315 23.9018 51.5752 25.3431 52.3305 27.1808C53.0858 29.0186 56.0861 30.8574 56.0861 30.8574L77 0.0100241L69.0187 0.00334136Z" fill="#E2012D"/>
<path d="M42.92 8.25659H11.1456C11.1456 8.25659 11.3075 8.61412 12.7509 9.94621C14.1955 11.2783 15.6609 11.5701 16.1311 11.5701H40.6717C41.4326 10.4474 42.1912 9.32917 42.9189 8.25659H42.92Z" fill="#E2012D"/>
<path d="M39.4386 13.3899H17.6086C17.6086 13.3899 17.7154 13.9579 19.1424 15.153C20.5682 16.347 21.5613 16.7045 21.9962 16.7045H37.1925C37.9082 15.6486 38.6668 14.5293 39.4386 13.391V13.3899Z" fill="#E2012D"/>
<path d="M36.1345 18.2649H23.7325C23.7325 18.2649 23.7226 18.6358 25.296 19.9979C26.8694 21.3601 27.8107 21.5795 28.2291 21.5795H33.8884C34.4906 20.6896 35.2625 19.5524 36.1345 18.266V18.2649Z" fill="#E2012D"/>
</g>
<defs>
<clipPath id="clip0_17_178">
<rect width="77" height="31" fill="white"/>
</clipPath>
</defs>
</svg>
