<svg width="47" height="35" viewBox="0 0 47 35" fill="none" xmlns="http://www.w3.org/2000/svg">
<g clip-path="url(#clip0_13_123)">
<path d="M45.1105 10.9119H1.88947C0.845424 10.9119 0 11.7272 0 12.7342C0 13.7411 0.845424 14.5565 1.88947 14.5565H45.1105C46.1546 14.5565 47 13.7411 47 12.7342C47 11.7272 46.1546 10.9119 45.1105 10.9119Z" fill="url(#paint0_linear_13_123)"/>
<path d="M10.6136 10.067L13.2848 10.0719C13.43 10.0719 13.5649 10.0032 13.6439 9.88527L19.0067 2.04336C19.4218 1.43428 19.2486 0.616445 18.6171 0.216122C17.9856 -0.184201 17.1376 -0.0171949 16.7225 0.591885L10.4455 9.76738C10.3589 9.89509 10.4532 10.0646 10.611 10.067H10.6136Z" fill="url(#paint1_linear_13_123)"/>
<path d="M33.5776 9.88772C33.6565 10.0032 33.7915 10.0744 33.9366 10.0744L36.6079 10.0695C36.7658 10.0695 36.8625 9.89755 36.7734 9.76984L30.4989 0.591885C30.0838 -0.0171949 29.2333 -0.184201 28.6044 0.216122C27.9728 0.616445 27.7997 1.43674 28.2147 2.04336L33.5776 9.88527V9.88772Z" fill="url(#paint2_linear_13_123)"/>
<path d="M43.7812 15.394H2.82653C2.60753 15.394 2.43692 15.5807 2.46493 15.7919L4.71346 31.9006C4.96046 33.6763 6.53163 35 8.388 35H38.2172C40.0736 35 41.6447 33.6763 41.8918 31.9006L44.1403 15.7919C44.1708 15.5807 44.0002 15.394 43.7787 15.394H43.7812Z" fill="url(#paint3_linear_13_123)"/>
<path d="M17.5399 26.3157C18.4744 27.5437 19.6356 27.6026 19.6356 27.6026H21.6677L22.5844 26.3157H17.5374H17.5399Z" fill="white"/>
<path d="M15.0112 24.3828C15.9458 25.6108 17.107 25.6697 17.107 25.6697H23.0479L23.9646 24.3828H15.0112Z" fill="white"/>
<path d="M12.4827 22.4524C13.4172 23.6804 14.5784 23.7393 14.5784 23.7393H24.4256L25.3423 22.4524H12.4827Z" fill="white"/>
<path d="M7.85571 19.2327C9.72736 21.6862 12.0472 21.809 12.0472 21.809H26.6078L21.7772 28.5875C20.8146 29.9382 23.1803 31.1638 23.1803 31.1638L29.8469 21.8114C29.8469 21.8114 32.1668 21.6911 34.0384 19.2351H7.85571V19.2327Z" fill="white"/>
<path d="M39.1441 19.2327H35.905C34.0334 21.6862 31.7135 21.809 31.7135 21.809H34.069L29.2384 28.5875C28.2758 29.9382 30.6415 31.1638 30.6415 31.1638L39.1441 19.2351V19.2327Z" fill="white"/>
</g>
<defs>
<linearGradient id="paint0_linear_13_123" x1="4.26277" y1="0.938179" x2="41.8488" y2="25.7153" gradientUnits="userSpaceOnUse">
<stop stop-color="#D11320"/>
<stop offset="1" stop-color="#A82124"/>
</linearGradient>
<linearGradient id="paint1_linear_13_123" x1="5.26093" y1="-0.5747" x2="42.8471" y2="24.1999" gradientUnits="userSpaceOnUse">
<stop stop-color="#D11320"/>
<stop offset="1" stop-color="#A82124"/>
</linearGradient>
<linearGradient id="paint2_linear_13_123" x1="10.2597" y1="-8.16118" x2="47.8483" y2="16.616" gradientUnits="userSpaceOnUse">
<stop stop-color="#D11320"/>
<stop offset="1" stop-color="#A82124"/>
</linearGradient>
<linearGradient id="paint3_linear_13_123" x1="-0.982974" y1="8.89801" x2="36.6031" y2="33.6751" gradientUnits="userSpaceOnUse">
<stop stop-color="#D11320"/>
<stop offset="1" stop-color="#A82124"/>
</linearGradient>
<clipPath id="clip0_13_123">
<rect width="47" height="35" fill="white"/>
</clipPath>
</defs>
</svg>
